<?xml version="1.0" encoding="UTF-8" standalone="no"?>
<svg width="32px" height="32px" viewBox="0 0 32 32" version="1.1" xmlns="http://www.w3.org/2000/svg" xmlns:xlink="http://www.w3.org/1999/xlink" xmlns:sketch="http://www.bohemiancoding.com/sketch/ns">
    <!-- Generator: Sketch 3.1.1 (8761) - http://www.bohemiancoding.com/sketch -->
    <title>logo</title>
    <desc>Created with Sketch.</desc>
    <defs></defs>
    <g id="logotype" stroke="none" stroke-width="1" fill="none" fill-rule="evenodd" sketch:type="MSPage">
        <g id="colour" sketch:type="MSLayerGroup">
            <g id="logo" transform="translate(0.500000, 0.000000)" sketch:type="MSShapeGroup">
                <path d="M12.1271335,2.25398282 L23.545679,2.25398282 L29.5425212,12.5369499 L29.5425212,12.5369499 C29.1979252,12.418759 28.8285958,12.3546577 28.4444444,12.3546577 C27.8517324,12.3546577 27.2943051,12.5072559 26.8085678,12.7756794 L22.1090909,4.71734397 L12.7764001,4.71734397 C12.7919851,4.58367455 12.8,4.44766488 12.8,4.30976431 C12.8,3.53937282 12.5498558,2.82799579 12.1271335,2.25398282 Z M6.06918627,5.12448183 L-0.158024691,15.8024691 L6.06918627,26.4804564 C6.29111446,25.5551709 6.88257419,24.775707 7.67685751,24.3104567 L2.71515152,15.8024691 L7.67685751,7.29448152 C6.88257419,6.82923125 6.29111446,6.04976739 6.06918627,5.12448183 Z M29.5425212,19.0679884 L25.2197026,26.4804564 L25.2197026,26.4804564 C24.9977744,25.5551709 24.4063147,24.775707 23.6120314,24.3104567 L26.8085678,18.8292589 C27.2943051,19.0976824 27.8517324,19.2502806 28.4444444,19.2502806 C28.8285958,19.2502806 29.1979252,19.1861793 29.5425212,19.0679884 L29.5425212,19.0679884 Z M19.1617553,29.3509555 L12.1271335,29.3509555 L12.1271335,29.3509555 C12.5498558,28.7769425 12.8,28.0655654 12.8,27.295174 C12.8,27.1572734 12.7919851,27.0212637 12.7764001,26.8875943 L18.5124888,26.8875943 C18.4969038,27.0212637 18.4888889,27.1572734 18.4888889,27.295174 C18.4888889,28.0655654 18.7390331,28.7769425 19.1617553,29.3509555 L19.1617553,29.3509555 Z" id="clipped-hex" fill="#9E9792"></path>
                <path d="M26.8442638,14.1682344 L11.5706096,4.9575278 L11.5706096,4.9575278 C11.4607698,5.33598892 11.2571317,5.67395484 10.9868474,5.94399906 L26.2605015,15.1547056 C26.3703413,14.7762445 26.5739794,14.4382786 26.8442638,14.1682344 Z" id="edge-1" fill="#3F96F0"></path>
                <path d="M21.3386095,25.0676822 L10.9469495,5.98290729 L10.9469495,5.98290729 C10.6707963,6.24575928 10.3295759,6.43963013 9.9502794,6.53725604 L20.3419394,25.622031 C20.6180926,25.359179 20.959313,25.1653081 21.3386095,25.0676822 Z" id="edge-2" fill="#3F96F0"></path>
                <path d="M9.95555556,25.0690471 L9.95555556,6.53589119 L9.95555556,6.53589119 C9.77372733,6.58316326 9.58310376,6.60830527 9.38666667,6.60830527 C9.19022958,6.60830527 8.999606,6.58316326 8.81777778,6.53589119 L8.81777778,25.0690471 C8.999606,25.021775 9.19022958,24.996633 9.38666667,24.996633 C9.58310376,24.996633 9.77372733,25.021775 9.95555556,25.0690471 Z" id="edge-3" fill="#3F96F0"></path>
                <path d="M12.2311111,4.30976431 C12.2311111,2.72295291 10.95761,1.4365881 9.38666667,1.4365881 C7.81572338,1.4365881 6.54222222,2.72295291 6.54222222,4.30976431 C6.54222222,5.89657571 7.81572338,7.18294052 9.38666667,7.18294052 C10.95761,7.18294052 12.2311111,5.89657571 12.2311111,4.30976431 Z M7.68,4.30976431 C7.68,3.35767747 8.44410069,2.58585859 9.38666667,2.58585859 C10.3292326,2.58585859 11.0933333,3.35767747 11.0933333,4.30976431 C11.0933333,5.26185115 10.3292326,6.03367003 9.38666667,6.03367003 C8.44410069,6.03367003 7.68,5.26185115 7.68,4.30976431 Z" id="node-1" fill="#3F96F0"></path>
                <path d="M31.2888889,15.8024691 C31.2888889,14.2156577 30.0153877,12.9292929 28.4444444,12.9292929 C26.8735012,12.9292929 25.6,14.2156577 25.6,15.8024691 C25.6,17.3892805 26.8735012,18.6756453 28.4444444,18.6756453 C30.0153877,18.6756453 31.2888889,17.3892805 31.2888889,15.8024691 Z M26.7377778,15.8024691 C26.7377778,14.8503823 27.5018785,14.0785634 28.4444444,14.0785634 C29.3870104,14.0785634 30.1511111,14.8503823 30.1511111,15.8024691 C30.1511111,16.754556 29.3870104,17.5263749 28.4444444,17.5263749 C27.5018785,17.5263749 26.7377778,16.754556 26.7377778,15.8024691 Z" id="node-2" fill="#3F96F0"></path>
                <path d="M24.7466667,27.295174 C24.7466667,25.7083626 23.4731655,24.4219978 21.9022222,24.4219978 C20.3312789,24.4219978 19.0577778,25.7083626 19.0577778,27.295174 C19.0577778,28.8819854 20.3312789,30.1683502 21.9022222,30.1683502 C23.4731655,30.1683502 24.7466667,28.8819854 24.7466667,27.295174 Z M20.1955556,27.295174 C20.1955556,26.3430871 20.9596562,25.5712682 21.9022222,25.5712682 C22.8447882,25.5712682 23.6088889,26.3430871 23.6088889,27.295174 C23.6088889,28.2472608 22.8447882,29.0190797 21.9022222,29.0190797 C20.9596562,29.0190797 20.1955556,28.2472608 20.1955556,27.295174 Z" id="node-3" fill="#3F96F0"></path>
                <path d="M12.2311111,27.295174 C12.2311111,25.7083626 10.95761,24.4219978 9.38666667,24.4219978 C7.81572338,24.4219978 6.54222222,25.7083626 6.54222222,27.295174 C6.54222222,28.8819854 7.81572338,30.1683502 9.38666667,30.1683502 C10.95761,30.1683502 12.2311111,28.8819854 12.2311111,27.295174 Z M7.68,27.295174 C7.68,26.3430871 8.44410069,25.5712682 9.38666667,25.5712682 C10.3292326,25.5712682 11.0933333,26.3430871 11.0933333,27.295174 C11.0933333,28.2472608 10.3292326,29.0190797 9.38666667,29.0190797 C8.44410069,29.0190797 7.68,28.2472608 7.68,27.295174 Z" id="node-4" fill="#3F96F0"></path>
            </g>
        </g>
    </g>
</svg>