<?xml version="1.0" encoding="UTF-8" standalone="no"?>
<svg width="320px" height="320px" viewBox="0 0 320 320" version="1.1" xmlns="http://www.w3.org/2000/svg" xmlns:xlink="http://www.w3.org/1999/xlink" xmlns:sketch="http://www.bohemiancoding.com/sketch/ns">
    <!-- Generator: Sketch 3.1.1 (8761) - http://www.bohemiancoding.com/sketch -->
    <title>logo</title>
    <desc>Created with Sketch.</desc>
    <defs></defs>
    <g id="logo" stroke="none" stroke-width="1" fill="none" fill-rule="evenodd" sketch:type="MSPage">
        <g id="colour" sketch:type="MSLayerGroup">
            <g id="logo" transform="translate(5.000000, 0.000000)" sketch:type="MSShapeGroup">
                <path d="M121.271335,22.5398282 L235.45679,22.5398282 L295.425212,125.369499 L295.425212,125.369499 C291.979252,124.18759 288.285958,123.546577 284.444444,123.546577 C278.517324,123.546577 272.943051,125.072559 268.085678,127.756794 L221.090909,47.1734397 L127.764001,47.1734397 C127.919851,45.8367455 128,44.4766488 128,43.0976431 C128,35.3937282 125.498558,28.2799579 121.271335,22.5398282 Z M60.6918642,51.2448157 L-1.58024691,158.024691 L60.6918642,264.804567 C62.9111435,255.55171 68.8257412,247.757071 76.7685751,243.104567 L27.1515152,158.024691 L76.7685751,72.9448152 C68.8257412,68.292312 62.9111435,60.4976725 60.691862,51.2448157 Z M295.425212,190.679884 L252.197025,264.804567 L252.197027,264.804567 C249.977745,255.55171 244.063148,247.757071 236.120314,243.104567 L268.085678,188.292589 C272.943051,190.976824 278.517324,192.502806 284.444444,192.502806 C288.285958,192.502806 291.979252,191.861793 295.425212,190.679884 L295.425212,190.679884 Z M191.617553,293.509555 L121.271335,293.509555 L121.271335,293.509555 C125.498558,287.769425 128,280.655654 128,272.95174 C128,271.572734 127.919851,270.212637 127.764001,268.875943 L185.124888,268.875943 C184.969038,270.212637 184.888889,271.572734 184.888889,272.95174 C184.888889,280.655654 187.390331,287.769425 191.617553,293.509555 L191.617553,293.509555 Z" id="clipped-hex" fill="#9E9792"></path>
                <path d="M268.442638,141.682344 L115.706096,49.575278 L115.706096,49.575278 C114.607698,53.3598892 112.571317,56.7395484 109.868474,59.4399906 L262.605015,151.547056 C263.703413,147.762445 265.739794,144.382786 268.442638,141.682344 Z" id="edge-1" fill="#3F96F0"></path>
                <path d="M213.386095,250.676822 L109.469495,59.8290729 L109.469495,59.8290729 C106.707963,62.4575928 103.295759,64.3963013 99.502794,65.3725604 L203.419394,256.22031 C206.180926,253.59179 209.59313,251.653081 213.386095,250.676822 Z" id="edge-2" fill="#3F96F0"></path>
                <path d="M99.5555556,250.690471 L99.5555556,65.3589119 L99.5555556,65.3589119 C97.7372733,65.8316326 95.8310376,66.0830527 93.8666667,66.0830527 C91.9022958,66.0830527 89.99606,65.8316326 88.1777778,65.3589119 L88.1777778,250.690471 C89.99606,250.21775 91.9022958,249.96633 93.8666667,249.96633 C95.8310376,249.96633 97.7372733,250.21775 99.5555556,250.690471 Z" id="edge-3" fill="#3F96F0"></path>
                <path d="M122.311111,43.0976431 C122.311111,27.2295291 109.5761,14.365881 93.8666667,14.365881 C78.1572338,14.365881 65.4222222,27.2295291 65.4222222,43.0976431 C65.4222222,58.9657571 78.1572338,71.8294052 93.8666667,71.8294052 C109.5761,71.8294052 122.311111,58.9657571 122.311111,43.0976431 Z M76.8,43.0976431 C76.8,33.5767747 84.4410069,25.8585859 93.8666667,25.8585859 C103.292326,25.8585859 110.933333,33.5767747 110.933333,43.0976431 C110.933333,52.6185115 103.292326,60.3367003 93.8666667,60.3367003 C84.4410069,60.3367003 76.8,52.6185115 76.8,43.0976431 Z" id="node-1" fill="#3F96F0"></path>
                <path d="M312.888889,158.024691 C312.888889,142.156577 300.153877,129.292929 284.444444,129.292929 C268.735012,129.292929 256,142.156577 256,158.024691 C256,173.892805 268.735012,186.756453 284.444444,186.756453 C300.153877,186.756453 312.888889,173.892805 312.888889,158.024691 Z M267.377778,158.024691 C267.377778,148.503823 275.018785,140.785634 284.444444,140.785634 C293.870104,140.785634 301.511111,148.503823 301.511111,158.024691 C301.511111,167.54556 293.870104,175.263749 284.444444,175.263749 C275.018785,175.263749 267.377778,167.54556 267.377778,158.024691 Z" id="node-2" fill="#3F96F0"></path>
                <path d="M247.466667,272.95174 C247.466667,257.083626 234.731655,244.219978 219.022222,244.219978 C203.312789,244.219978 190.577778,257.083626 190.577778,272.95174 C190.577778,288.819854 203.312789,301.683502 219.022222,301.683502 C234.731655,301.683502 247.466667,288.819854 247.466667,272.95174 Z M201.955556,272.95174 C201.955556,263.430871 209.596562,255.712682 219.022222,255.712682 C228.447882,255.712682 236.088889,263.430871 236.088889,272.95174 C236.088889,282.472608 228.447882,290.190797 219.022222,290.190797 C209.596562,290.190797 201.955556,282.472608 201.955556,272.95174 Z" id="node-3" fill="#3F96F0"></path>
                <path d="M122.311111,272.95174 C122.311111,257.083626 109.5761,244.219978 93.8666667,244.219978 C78.1572338,244.219978 65.4222222,257.083626 65.4222222,272.95174 C65.4222222,288.819854 78.1572338,301.683502 93.8666667,301.683502 C109.5761,301.683502 122.311111,288.819854 122.311111,272.95174 Z M76.8,272.95174 C76.8,263.430871 84.4410069,255.712682 93.8666667,255.712682 C103.292326,255.712682 110.933333,263.430871 110.933333,272.95174 C110.933333,282.472608 103.292326,290.190797 93.8666667,290.190797 C84.4410069,290.190797 76.8,282.472608 76.8,272.95174 Z" id="node-4" fill="#3F96F0"></path>
            </g>
        </g>
    </g>
</svg>